# xmcd
#
# Track frame offsets: 
#        150
#        21076
#        50027
#        75378
#        92705
#        125707
#        151208
#        169359
#        189012
#        209188
#        231764
#        255165
#        274442
#        298596
#
# Disc length: 4318 seconds
#
# Revision: 2
# Processed by: cddbd v1.5.2PL0 Copyright (c) Steve Scherf et al.
# Submitted via: ExactAudioCopy v1.0b3
#
DISCID=c410dc0e
DTITLE=Various Artist - Blues Paradise  vol.25
DYEAR=2002
DGENRE=Blues
TTITLE0=The Boneshakers - Let's Strainghten It Out
TTITLE1=Julian Sas - Losing Ground
TTITLE2=Blues Company - 747
TTITLE3=Bonnie Tyler - Bad Dreams
TTITLE4=David Gogo - This Is Man's World
TTITLE5=Hamburg Blues Band - Ain't That Don't Love Tou
TTITLE6=Gregg Allman - House Of Blues
TTITLE7=Snowy White - Can't Help Myself
TTITLE8=The Hamsters - Hey Joe
TTITLE9=Patrick Verbeke And Karina Formier - You've Got A Friend
TTITLE10=Rudy Rotta Band - Mama Save Our Children
TTITLE11=Scott Ellison - Big Blue Car
TTITLE12=Steve Hill - Peace Of Mind
TTITLE13=John Miles - Now That The Magic Has Gone
EXTD=YEAR: 2003
EXTT0=
EXTT1=
EXTT2=
EXTT3=
EXTT4=
EXTT5=
EXTT6=
EXTT7=
EXTT8=
EXTT9=
EXTT10=
EXTT11=
EXTT12=
EXTT13=
PLAYORDER=
